<svg xmlns="http://www.w3.org/2000/svg" viewBox="0 0 900 650" role="img" aria-labelledby="title desc">
<title>Backdrop sample</title><desc>Pastel event backdrop illustration</desc>
<defs>
  <linearGradient id="bg" x1="0" x2="1" y1="0" y2="1"><stop stop-color="#fff7e4"/><stop offset="1" stop-color="#fff0f7"/></linearGradient>
  <linearGradient id="panel" x1="0" y1="0" x2="1" y2="1"><stop stop-color="#f36aa9"/><stop offset="1" stop-color="#ec58c6"/></linearGradient>
  <filter id="shadow" x="-30%" y="-30%" width="160%" height="160%"><feDropShadow dx="0" dy="15" stdDeviation="14" flood-color="#6f3158" flood-opacity=".2"/></filter>
</defs>
<rect width="900" height="650" rx="48" fill="url(#bg)"/>
<ellipse cx="449" cy="570" rx="320" ry="38" fill="#e9c9d7" opacity=".45"/>
<g filter="url(#shadow)">
 <rect x="264" y="135" width="372" height="380" rx="150" fill="url(#panel)"/>
 <rect x="294" y="164" width="312" height="322" rx="125" fill="#ffd6e9"/>
 <circle cx="450" cy="292" r="98" fill="#fff9ee"/>
 <text x="450" y="280" text-anchor="middle" font-family="Arial, sans-serif" font-size="30" font-weight="700" fill="#e44d92">celebrate</text>
 <text x="450" y="319" text-anchor="middle" font-family="Arial, sans-serif" font-size="21" fill="#6e5060">your moment</text>
</g>
<g filter="url(#shadow)">
  <circle cx="245" cy="462" r="52" fill="#ffc735"/><circle cx="210" cy="410" r="43" fill="#67cdc9"/><circle cx="265" cy="390" r="44" fill="#f45eaa"/>
  <circle cx="654" cy="456" r="53" fill="#f45eaa"/><circle cx="688" cy="402" r="45" fill="#ffcc3d"/><circle cx="632" cy="385" r="42" fill="#63c8c5"/>
</g>
<path d="M135 149l8 18 18 8-18 8-8 18-8-18-18-8 18-8z" fill="#f1b61e"/><path d="M733 130l7 16 16 7-16 7-7 16-7-16-16-7 16-7z" fill="#db55bb"/>
</svg>
